<svg id="Ebene_1" data-name="Ebene 1" xmlns="http://www.w3.org/2000/svg" viewBox="0 0 21.88 20.88"><defs><style>.cls-1{fill:#fb6a6a;}.cls-2{fill:none;stroke:#fb6a6a;stroke-linecap:round;stroke-miterlimit:10;stroke-width:0.75px;}</style></defs><title>Unbenannt-1</title><path class="cls-1" d="M22,6.75l-3.5,10.5H7.69L6.82,6.75H22M23,6H6L7,18H19L23,6Z" transform="translate(-1.13 -2.13)"/><polyline class="cls-2" points="5.38 4.38 3.38 0.38 0.38 0.38"/><line class="cls-2" x1="8.88" y1="10.38" x2="19.38" y2="10.38"/><path class="cls-1" d="M8,19.75A1.25,1.25,0,1,1,6.75,21,1.25,1.25,0,0,1,8,19.75M8,19a2,2,0,1,0,2,2,2,2,0,0,0-2-2Z" transform="translate(-1.13 -2.13)"/><path class="cls-1" d="M17,19.75A1.25,1.25,0,1,1,15.75,21,1.25,1.25,0,0,1,17,19.75M17,19a2,2,0,1,0,2,2,2,2,0,0,0-2-2Z" transform="translate(-1.13 -2.13)"/></svg>